<svg xmlns="http://www.w3.org/2000/svg" viewBox="0 0 640 400" role="img" aria-label="Mixwell Nonpareil RDF (OSL)">
  <rect width="640" height="400" fill="#0d1117"/>
  <rect x="0" y="0" width="36" height="400" fill="#0b0e14"/>
  <g font-family="ui-monospace, 'Cascadia Code', 'SF Mono', Consolas, monospace" xml:space="preserve">
<text x="12" y="28" fill="#4b5563" font-size="12.5"> 1</text><text x="44.0" y="28" fill="#c9a26d" font-size="14">// RDF for Nonpareil pattern with comb gap noise.</text><text x="12" y="49" fill="#4b5563" font-size="12.5"> 2</text><text x="44.0" y="49" fill="#4ec9b0" font-size="14">vector</text><text x="102.8" y="49" fill="#dcdcaa" font-size="14">rdNonpareilNoisy</text><text x="237.2" y="49" fill="#c9d1d9" font-size="14">(</text><text x="245.6" y="49" fill="#4ec9b0" font-size="14">vector</text><text x="304.4" y="49" fill="#c9d1d9" font-size="14">p</text><text x="312.8" y="49" fill="#c9d1d9" font-size="14">,</text><text x="329.6" y="49" fill="#4ec9b0" font-size="14">float</text><text x="380.0" y="49" fill="#c9d1d9" font-size="14">r</text><text x="388.4" y="49" fill="#c9d1d9" font-size="14">,</text><text x="12" y="70" fill="#4b5563" font-size="12.5"> 3</text><text x="77.6" y="70" fill="#4ec9b0" font-size="14">vector</text><text x="136.4" y="70" fill="#c9d1d9" font-size="14">dir_in</text><text x="186.8" y="70" fill="#c9d1d9" font-size="14">,</text><text x="203.6" y="70" fill="#4ec9b0" font-size="14">float</text><text x="254.0" y="70" fill="#c9d1d9" font-size="14">combGap</text><text x="312.8" y="70" fill="#c9d1d9" font-size="14">,</text><text x="329.6" y="70" fill="#4ec9b0" font-size="14">float</text><text x="380.0" y="70" fill="#c9d1d9" font-size="14">combGapNoise</text><text x="480.8" y="70" fill="#c9d1d9" font-size="14">)</text><text x="497.6" y="70" fill="#c9d1d9" font-size="14">{</text><text x="12" y="91" fill="#4b5563" font-size="12.5"> 4</text><text x="77.6" y="91" fill="#4ec9b0" font-size="14">vector</text><text x="136.4" y="91" fill="#c9d1d9" font-size="14">dir</text><text x="170.0" y="91" fill="#c9d1d9" font-size="14">=</text><text x="186.8" y="91" fill="#dcdcaa" font-size="14">normalize</text><text x="262.4" y="91" fill="#c9d1d9" font-size="14">(</text><text x="270.8" y="91" fill="#c9d1d9" font-size="14">dir_in</text><text x="321.2" y="91" fill="#c9d1d9" font-size="14">)</text><text x="329.6" y="91" fill="#c9d1d9" font-size="14">;</text><text x="12" y="112" fill="#4b5563" font-size="12.5"> 5</text><text x="77.6" y="112" fill="#4ec9b0" font-size="14">vector</text><text x="136.4" y="112" fill="#c9d1d9" font-size="14">n</text><text x="153.2" y="112" fill="#c9d1d9" font-size="14">=</text><text x="170.0" y="112" fill="#dcdcaa" font-size="14">rot90</text><text x="212.0" y="112" fill="#c9d1d9" font-size="14">(</text><text x="220.4" y="112" fill="#c9d1d9" font-size="14">dir</text><text x="245.6" y="112" fill="#c9d1d9" font-size="14">)</text><text x="254.0" y="112" fill="#c9d1d9" font-size="14">;</text><text x="12" y="133" fill="#4b5563" font-size="12.5"> 6</text><text x="77.6" y="133" fill="#4ec9b0" font-size="14">float</text><text x="128.0" y="133" fill="#c9d1d9" font-size="14">y</text><text x="144.8" y="133" fill="#c9d1d9" font-size="14">=</text><text x="161.6" y="133" fill="#dcdcaa" font-size="14">dot</text><text x="186.8" y="133" fill="#c9d1d9" font-size="14">(</text><text x="195.2" y="133" fill="#c9d1d9" font-size="14">p</text><text x="203.6" y="133" fill="#c9d1d9" font-size="14">,</text><text x="220.4" y="133" fill="#c9d1d9" font-size="14">n</text><text x="228.8" y="133" fill="#c9d1d9" font-size="14">)</text><text x="237.2" y="133" fill="#c9d1d9" font-size="14">;</text><text x="12" y="154" fill="#4b5563" font-size="12.5"> 7</text><text x="77.6" y="154" fill="#4ec9b0" font-size="14">float</text><text x="128.0" y="154" fill="#c9d1d9" font-size="14">dyMax</text><text x="178.4" y="154" fill="#c9d1d9" font-size="14">=</text><text x="195.2" y="154" fill="#c9d1d9" font-size="14">r</text><text x="212.0" y="154" fill="#c9d1d9" font-size="14">*</text><text x="228.8" y="154" fill="#c9d1d9" font-size="14">RDSEGMENT_MASK_R_FACTOR</text><text x="430.4" y="154" fill="#c9d1d9" font-size="14">+</text><text x="447.2" y="154" fill="#c9d1d9" font-size="14">combGap</text><text x="506.0" y="154" fill="#c9d1d9" font-size="14">;</text><text x="12" y="175" fill="#4b5563" font-size="12.5"> 8</text><text x="77.6" y="175" fill="#4ec9b0" font-size="14">int</text><text x="111.2" y="175" fill="#c9d1d9" font-size="14">dkMax</text><text x="161.6" y="175" fill="#c9d1d9" font-size="14">=</text><text x="178.4" y="175" fill="#c9d1d9" font-size="14">(</text><text x="186.8" y="175" fill="#4ec9b0" font-size="14">int</text><text x="212.0" y="175" fill="#c9d1d9" font-size="14">)</text><text x="220.4" y="175" fill="#dcdcaa" font-size="14">ceil</text><text x="254.0" y="175" fill="#c9d1d9" font-size="14">(</text><text x="262.4" y="175" fill="#c9d1d9" font-size="14">dyMax</text><text x="312.8" y="175" fill="#c9d1d9" font-size="14">/</text><text x="329.6" y="175" fill="#c9d1d9" font-size="14">combGap</text><text x="388.4" y="175" fill="#c9d1d9" font-size="14">)</text><text x="396.8" y="175" fill="#c9d1d9" font-size="14">;</text><text x="12" y="196" fill="#4b5563" font-size="12.5"> 9</text><text x="77.6" y="196" fill="#4ec9b0" font-size="14">int</text><text x="111.2" y="196" fill="#c9d1d9" font-size="14">k0</text><text x="136.4" y="196" fill="#c9d1d9" font-size="14">=</text><text x="153.2" y="196" fill="#c9d1d9" font-size="14">(</text><text x="161.6" y="196" fill="#4ec9b0" font-size="14">int</text><text x="186.8" y="196" fill="#c9d1d9" font-size="14">)</text><text x="195.2" y="196" fill="#dcdcaa" font-size="14">round</text><text x="237.2" y="196" fill="#c9d1d9" font-size="14">(</text><text x="245.6" y="196" fill="#c9d1d9" font-size="14">y</text><text x="262.4" y="196" fill="#c9d1d9" font-size="14">/</text><text x="279.2" y="196" fill="#c9d1d9" font-size="14">combGap</text><text x="338.0" y="196" fill="#c9d1d9" font-size="14">)</text><text x="346.4" y="196" fill="#c9d1d9" font-size="14">;</text><text x="12" y="217" fill="#4b5563" font-size="12.5">10</text><text x="77.6" y="217" fill="#4ec9b0" font-size="14">vector</text><text x="136.4" y="217" fill="#c9d1d9" font-size="14">rdf</text><text x="170.0" y="217" fill="#c9d1d9" font-size="14">=</text><text x="186.8" y="217" fill="#4ec9b0" font-size="14">vector</text><text x="237.2" y="217" fill="#c9d1d9" font-size="14">(</text><text x="245.6" y="217" fill="#b5cea8" font-size="14">0.0</text><text x="270.8" y="217" fill="#c9d1d9" font-size="14">,</text><text x="287.6" y="217" fill="#b5cea8" font-size="14">0.0</text><text x="312.8" y="217" fill="#c9d1d9" font-size="14">,</text><text x="329.6" y="217" fill="#b5cea8" font-size="14">0.0</text><text x="354.8" y="217" fill="#c9d1d9" font-size="14">)</text><text x="363.2" y="217" fill="#c9d1d9" font-size="14">;</text><text x="12" y="238" fill="#4b5563" font-size="12.5">11</text><text x="77.6" y="238" fill="#c586c0" font-size="14">for</text><text x="111.2" y="238" fill="#c9d1d9" font-size="14">(</text><text x="119.6" y="238" fill="#4ec9b0" font-size="14">int</text><text x="153.2" y="238" fill="#c9d1d9" font-size="14">k</text><text x="170.0" y="238" fill="#c9d1d9" font-size="14">=</text><text x="186.8" y="238" fill="#c9d1d9" font-size="14">k0</text><text x="212.0" y="238" fill="#c9d1d9" font-size="14">-</text><text x="228.8" y="238" fill="#c9d1d9" font-size="14">dkMax</text><text x="270.8" y="238" fill="#c9d1d9" font-size="14">;</text><text x="287.6" y="238" fill="#c9d1d9" font-size="14">k</text><text x="304.4" y="238" fill="#c9d1d9" font-size="14">&lt;</text><text x="312.8" y="238" fill="#c9d1d9" font-size="14">=</text><text x="329.6" y="238" fill="#c9d1d9" font-size="14">k0</text><text x="354.8" y="238" fill="#c9d1d9" font-size="14">+</text><text x="371.6" y="238" fill="#c9d1d9" font-size="14">dkMax</text><text x="413.6" y="238" fill="#c9d1d9" font-size="14">;</text><text x="430.4" y="238" fill="#c9d1d9" font-size="14">k</text><text x="438.8" y="238" fill="#c9d1d9" font-size="14">+</text><text x="447.2" y="238" fill="#c9d1d9" font-size="14">+</text><text x="455.6" y="238" fill="#c9d1d9" font-size="14">)</text><text x="472.4" y="238" fill="#c9d1d9" font-size="14">{</text><text x="12" y="259" fill="#4b5563" font-size="12.5">12</text><text x="111.2" y="259" fill="#4ec9b0" font-size="14">float</text><text x="161.6" y="259" fill="#c9d1d9" font-size="14">noisek</text><text x="220.4" y="259" fill="#c9d1d9" font-size="14">=</text><text x="237.2" y="259" fill="#b5cea8" font-size="14">2.0</text><text x="270.8" y="259" fill="#c9d1d9" font-size="14">*</text><text x="287.6" y="259" fill="#dcdcaa" font-size="14">iqhash</text><text x="338.0" y="259" fill="#c9d1d9" font-size="14">(</text><text x="346.4" y="259" fill="#c9d1d9" font-size="14">(</text><text x="354.8" y="259" fill="#4ec9b0" font-size="14">float</text><text x="396.8" y="259" fill="#c9d1d9" font-size="14">)</text><text x="405.2" y="259" fill="#c9d1d9" font-size="14">k</text><text x="413.6" y="259" fill="#c9d1d9" font-size="14">)</text><text x="430.4" y="259" fill="#c9d1d9" font-size="14">-</text><text x="447.2" y="259" fill="#b5cea8" font-size="14">1.0</text><text x="472.4" y="259" fill="#c9d1d9" font-size="14">;</text><text x="12" y="280" fill="#4b5563" font-size="12.5">13</text><text x="111.2" y="280" fill="#4ec9b0" font-size="14">float</text><text x="161.6" y="280" fill="#c9d1d9" font-size="14">yk</text><text x="186.8" y="280" fill="#c9d1d9" font-size="14">=</text><text x="203.6" y="280" fill="#c9d1d9" font-size="14">combGap</text><text x="270.8" y="280" fill="#c9d1d9" font-size="14">*</text><text x="287.6" y="280" fill="#c9d1d9" font-size="14">(</text><text x="296.0" y="280" fill="#4ec9b0" font-size="14">float</text><text x="338.0" y="280" fill="#c9d1d9" font-size="14">)</text><text x="346.4" y="280" fill="#c9d1d9" font-size="14">k</text><text x="363.2" y="280" fill="#c9d1d9" font-size="14">+</text><text x="380.0" y="280" fill="#c9d1d9" font-size="14">combGapNoise</text><text x="489.2" y="280" fill="#c9d1d9" font-size="14">*</text><text x="506.0" y="280" fill="#c9d1d9" font-size="14">noisek</text><text x="556.4" y="280" fill="#c9d1d9" font-size="14">;</text><text x="12" y="301" fill="#4b5563" font-size="12.5">14</text><text x="111.2" y="301" fill="#c9d1d9" font-size="14">rdf</text><text x="144.8" y="301" fill="#c9d1d9" font-size="14">+</text><text x="153.2" y="301" fill="#c9d1d9" font-size="14">=</text><text x="170.0" y="301" fill="#dcdcaa" font-size="14">rdLine1DS</text><text x="245.6" y="301" fill="#c9d1d9" font-size="14">(</text><text x="254.0" y="301" fill="#dcdcaa" font-size="14">abs</text><text x="279.2" y="301" fill="#c9d1d9" font-size="14">(</text><text x="287.6" y="301" fill="#c9d1d9" font-size="14">y</text><text x="304.4" y="301" fill="#c9d1d9" font-size="14">-</text><text x="321.2" y="301" fill="#c9d1d9" font-size="14">yk</text><text x="338.0" y="301" fill="#c9d1d9" font-size="14">)</text><text x="346.4" y="301" fill="#c9d1d9" font-size="14">,</text><text x="363.2" y="301" fill="#c9d1d9" font-size="14">r</text><text x="371.6" y="301" fill="#c9d1d9" font-size="14">)</text><text x="388.4" y="301" fill="#c9d1d9" font-size="14">*</text><text x="405.2" y="301" fill="#c9d1d9" font-size="14">dir</text><text x="430.4" y="301" fill="#c9d1d9" font-size="14">;</text><text x="12" y="322" fill="#4b5563" font-size="12.5">15</text><text x="77.6" y="322" fill="#c9d1d9" font-size="14">}</text><text x="12" y="343" fill="#4b5563" font-size="12.5">16</text><text x="77.6" y="343" fill="#c586c0" font-size="14">return</text><text x="136.4" y="343" fill="#c9d1d9" font-size="14">rdf</text><text x="161.6" y="343" fill="#c9d1d9" font-size="14">;</text><text x="12" y="364" fill="#4b5563" font-size="12.5">17</text><text x="44.0" y="364" fill="#c9d1d9" font-size="14">}</text>
  </g>
</svg>
