<svg xmlns="http://www.w3.org/2000/svg" viewBox="0 0 1600 720" preserveAspectRatio="xMidYMid slice" role="img" aria-label="Mixwell teaser placeholder">
  <defs>
    <linearGradient id="bg" x1="0" y1="0" x2="1" y2="1">
      <stop offset="0" stop-color="#0e1524"/>
      <stop offset="1" stop-color="#161d2e"/>
    </linearGradient>
    <linearGradient id="flow" x1="0" y1="0" x2="1" y2="0">
      <stop offset="0" stop-color="#6b93ff"/>
      <stop offset="0.5" stop-color="#8f7bff"/>
      <stop offset="1" stop-color="#A6CE39"/>
    </linearGradient>
  </defs>
  <rect width="1600" height="720" fill="url(#bg)"/>
  <g fill="none" stroke="url(#flow)" stroke-width="2" opacity="0.55">
    <path d="M-50 200 C 300 120, 500 340, 800 300 S 1300 180, 1650 260"/>
    <path d="M-50 260 C 320 190, 520 400, 820 360 S 1320 250, 1650 320"/>
    <path d="M-50 320 C 340 260, 540 460, 840 420 S 1340 320, 1650 380"/>
    <path d="M-50 380 C 360 330, 560 520, 860 480 S 1360 390, 1650 440"/>
    <path d="M-50 440 C 380 400, 580 580, 880 540 S 1380 460, 1650 500"/>
    <path d="M-50 500 C 400 470, 600 640, 900 600 S 1400 530, 1650 560"/>
  </g>
  <circle cx="800" cy="360" r="46" fill="#0e1524" stroke="#A6CE39" stroke-width="3"/>
  <circle cx="800" cy="360" r="6" fill="#fff"/>
  <text x="80" y="120" fill="#e6e9ef" font-family="system-ui, sans-serif" font-size="40" font-weight="700" letter-spacing="-1">Mixwell</text>
  <text x="80" y="160" fill="#9aa4b2" font-family="system-ui, sans-serif" font-size="20">Placeholder teaser — replace with a web-optimized still</text>
</svg>
